<?xml version="1.0" standalone="no"?>
<!DOCTYPE svg PUBLIC "-//W3C//DTD SVG 20010904//EN"
 "http://www.w3.org/TR/2001/REC-SVG-20010904/DTD/svg10.dtd">
<svg version="1.0" xmlns="http://www.w3.org/2000/svg"
 width="420.000000pt" height="594.000000pt" viewBox="0 0 420.000000 594.000000"
 preserveAspectRatio="xMidYMid meet">

<g transform="translate(0.000000,594.000000) scale(0.100000,-0.100000)"
fill="#000000" stroke="none">
<path d="M1710 5669 c-25 -4 -306 -8 -626 -8 -497 -1 -587 -3 -626 -17 -30
-10 -80 -45 -144 -102 -55 -48 -126 -110 -159 -139 -83 -70 -105 -117 -105
-222 0 -87 18 -141 46 -141 17 0 34 11 150 97 l72 52 -22 43 c-17 34 -21 61
-21 131 0 128 -2 127 221 127 96 0 174 -4 174 -8 0 -4 -18 -25 -39 -46 -22
-22 -44 -51 -50 -65 -5 -14 -17 -118 -26 -231 -18 -233 -29 -304 -50 -336 -8
-12 -71 -57 -140 -99 -69 -42 -125 -79 -125 -81 0 -2 12 2 27 8 16 6 79 11
144 11 96 -1 155 -9 350 -48 274 -55 319 -56 426 -6 61 29 193 108 193 117 0
2 -19 -4 -42 -12 -57 -21 -107 -15 -355 41 -111 25 -245 50 -297 57 l-94 12
65 75 c116 136 113 127 121 378 l7 217 25 7 c14 4 51 7 83 8 l57 1 0 -252 c0
-139 -5 -269 -10 -289 -6 -20 -22 -53 -36 -74 -14 -21 -24 -39 -22 -41 5 -4
121 70 181 115 86 64 87 67 87 318 l0 220 168 6 c187 6 213 11 299 64 62 39
150 110 142 116 -2 2 -24 0 -49 -4z"/>
<path d="M1710 5328 c-19 -5 -52 -14 -72 -19 l-38 -10 0 -374 c0 -206 1 -375
3 -375 1 1 52 15 112 33 l110 32 3 207 2 206 30 7 c41 9 118 -28 196 -93 134
-111 137 -238 7 -337 -25 -19 -43 -35 -39 -35 4 0 54 19 112 42 65 26 100 44
92 49 -9 6 8 29 54 77 75 77 88 114 69 185 -13 46 -44 85 -106 133 -49 38
-157 94 -183 94 -10 0 -65 -22 -121 -50 -56 -27 -104 -50 -107 -50 -2 0 -4 55
-4 123 0 159 -3 167 -49 166 -20 0 -52 -5 -71 -11z"/>
<path d="M2915 5154 c-61 -16 -212 -72 -291 -109 -81 -38 -95 -48 -119 -89
-58 -99 -42 -217 42 -307 66 -70 127 -94 243 -94 l95 0 155 76 c171 83 224
122 253 188 48 109 -37 257 -179 311 -54 20 -163 33 -199 24z m-21 -94 c71
-27 143 -91 172 -155 43 -92 25 -215 -38 -259 -77 -54 -271 32 -329 146 -42
82 -34 196 17 258 22 26 32 30 75 30 26 0 73 -9 103 -20z"/>
<path d="M3491 5119 c-47 -22 -87 -42 -90 -44 -2 -3 5 -15 16 -28 41 -44 43
-60 43 -281 0 -119 3 -216 8 -216 4 0 54 15 112 33 l105 33 3 217 c2 180 5
217 17 217 26 0 133 -109 141 -143 l7 -32 9 33 c7 25 23 42 69 72 34 22 70 42
80 45 27 9 24 18 -24 62 -89 82 -82 81 -194 30 l-98 -45 -30 28 c-33 30 -76
60 -85 59 -3 0 -43 -18 -89 -40z"/>
<path d="M1660 4459 c-30 -3 -78 -17 -105 -31 -58 -30 -157 -103 -199 -147
l-30 -31 50 0 c27 -1 80 -5 118 -10 55 -7 74 -6 90 6 55 38 121 -1 135 -81 5
-27 7 -159 4 -292 l-6 -243 -37 0 c-29 0 -39 -5 -43 -20 -4 -17 -9 -18 -35 -9
-16 5 -56 9 -88 7 -52 -3 -59 -6 -62 -25 -6 -39 -60 -55 -185 -53 -62 1 -119
0 -127 -1 -56 -8 -55 -10 -52 142 l4 141 -32 -22 c-78 -55 -169 -210 -178
-301 -4 -48 10 -85 29 -73 18 11 8 -12 -26 -64 -38 -56 -41 -58 -79 -41 -106
49 8 365 196 545 96 92 163 121 329 139 66 7 107 -8 115 -42 6 -22 10 -23 96
-23 l90 0 -7 63 c-16 142 -70 186 -231 187 -276 1 -581 -195 -721 -465 -51
-99 -78 -189 -98 -324 -28 -190 7 -251 149 -254 l61 -2 14 58 c7 31 17 57 22
57 17 0 19 -22 5 -72 -20 -73 -31 -245 -17 -281 6 -16 49 -67 96 -115 84 -85
114 -128 54 -78 l-31 26 -39 -22 c-57 -32 -73 -73 -77 -197 -4 -118 7 -195 45
-294 68 -183 255 -365 478 -465 73 -32 243 -82 283 -82 19 0 22 4 16 27 l-7
28 20 -24 c17 -21 20 -38 18 -135 -1 -109 -2 -112 -38 -170 -42 -67 -45 -88
-20 -137 37 -71 12 -227 -49 -308 -10 -13 -18 -38 -18 -56 0 -30 -6 -36 -54
-64 -30 -16 -57 -35 -61 -41 -3 -5 10 -27 31 -47 72 -74 354 -457 354 -481 0
-11 -61 -62 -145 -121 l-59 -42 54 6 c38 5 99 -1 199 -19 163 -29 142 -33 296
53 l80 45 -50 13 c-109 27 -240 45 -293 38 -38 -5 -52 -3 -48 4 9 14 188 140
247 175 39 22 51 25 73 16 75 -28 179 5 222 70 20 31 25 49 23 96 -1 36 5 74
15 96 21 49 20 100 -3 146 -23 45 -43 63 -100 93 -24 12 -46 31 -49 42 -3 11
-16 40 -29 64 -12 24 -23 49 -23 56 0 7 -16 34 -35 61 -32 46 -35 55 -35 123
0 63 4 79 24 106 30 39 56 126 56 184 0 39 2 43 25 43 72 0 248 96 299 162 14
19 26 38 26 41 0 4 -21 7 -46 7 -25 0 -76 5 -114 11 -59 10 -71 9 -91 -5 -33
-23 -72 -20 -98 8 -24 25 -40 107 -41 201 0 36 -3 46 -10 35 -5 -8 -10 -84
-10 -168 0 -122 3 -159 16 -185 l17 -32 -22 19 c-20 18 -21 28 -21 191 l0 172
45 68 c29 45 46 83 50 114 9 65 13 72 14 24 l1 -43 104 0 104 0 7 63 c13 116
17 112 -107 115 -115 3 -112 4 -108 -50 2 -35 -16 -44 -25 -11 -3 14 -24 51
-46 81 -37 52 -39 59 -39 128 0 40 4 76 10 79 5 3 20 -1 32 -9 30 -21 45 -20
75 4 34 27 64 25 99 -5 36 -31 42 -31 54 0 5 14 18 25 28 25 9 0 27 7 39 15
18 13 22 13 33 0 10 -12 9 -15 -7 -15 -11 0 -32 -13 -48 -30 -34 -36 -69 -39
-119 -10 l-34 21 -16 -23 c-9 -13 -16 -43 -16 -70 l0 -48 85 0 c81 0 86 1 95
24 18 49 43 56 192 56 157 0 188 -7 188 -45 0 -15 -5 -35 -10 -46 -6 -10 -9
-62 -8 -117 l3 -97 66 67 c79 80 140 194 147 273 4 47 2 53 -27 77 -16 14 -36
28 -43 31 -9 4 2 20 30 47 27 26 49 40 58 36 9 -3 24 -6 35 -6 33 0 69 -44 69
-86 0 -135 -114 -360 -243 -481 -78 -72 -143 -108 -243 -133 -129 -33 -197
-24 -215 30 -11 29 -12 30 -79 30 -94 0 -100 -3 -100 -57 0 -142 76 -203 253
-203 99 0 238 35 330 81 227 116 400 348 472 634 69 272 29 352 -185 369 l-55
4 -2 192 -1 192 -54 44 c-29 25 -77 65 -106 91 -53 45 -54 46 -105 38 -29 -4
-61 -6 -72 -5 -11 1 -129 1 -263 0 -210 -1 -244 1 -258 15 -9 9 -24 13 -34 10
-10 -3 -21 -1 -25 5 -3 5 -14 10 -25 10 -11 0 -20 10 -24 25 -6 24 -9 24 -114
27 l-107 3 -6 325 c-7 330 -13 400 -43 444 -33 51 -112 76 -206 65z m438 -856
c18 -4 22 -11 20 -32 l-3 -26 -227 -3 -228 -2 0 28 c0 16 3 32 6 35 8 8 400 8
432 0z m-465 -71 c8 -9 29 -47 45 -83 24 -52 45 -79 110 -138 45 -40 88 -84
98 -98 l16 -26 -28 7 c-16 4 -42 23 -59 42 -16 20 -53 60 -82 89 -53 55 -133
181 -133 209 0 21 13 20 33 -2z m543 4 c6 -17 -9 -49 -42 -89 -13 -16 -27 -41
-30 -55 -3 -15 -19 -54 -34 -87 -15 -33 -32 -78 -37 -99 -9 -43 -35 -68 -53
-50 -13 13 12 89 39 119 26 28 49 75 71 148 31 100 71 152 86 113z m62 -18 c2
-9 -23 -53 -54 -99 -31 -46 -65 -106 -74 -134 -27 -76 -31 -85 -41 -85 -14 0
-10 28 10 73 11 23 28 65 39 94 11 28 36 72 56 96 20 24 36 52 36 61 0 21 24
16 28 -6z m-727 1 c11 -5 35 -43 53 -83 23 -49 45 -82 72 -103 22 -17 66 -69
99 -114 67 -94 73 -100 132 -129 63 -32 88 -54 153 -140 33 -43 85 -100 117
-127 115 -98 123 -108 123 -151 0 -23 -4 -43 -8 -46 -19 -11 -59 23 -84 71
-15 29 -50 80 -78 114 -28 33 -62 83 -75 109 -33 66 -83 114 -155 150 -82 41
-124 81 -170 160 -22 38 -64 90 -93 117 -30 26 -68 69 -85 94 -16 25 -37 51
-46 58 -9 8 -16 17 -16 22 0 12 37 11 61 -2z m100 -61 c23 -40 65 -98 93 -128
29 -30 64 -72 79 -92 15 -20 46 -47 69 -60 42 -23 79 -70 65 -84 -3 -4 -28 4
-54 17 -35 18 -60 43 -95 94 -27 38 -73 94 -103 125 -65 66 -132 200 -100 200
2 0 23 -33 46 -72z m1129 48 c0 -7 -11 -18 -25 -24 -18 -9 -25 -19 -25 -41 0
-16 -4 -33 -10 -36 -12 -7 -14 -65 -2 -65 8 0 32 70 32 94 0 20 98 84 135 88
17 2 30 -1 30 -7 -1 -5 -4 -77 -8 -160 -5 -82 -10 -262 -12 -398 -3 -207 -6
-252 -20 -273 -16 -24 -16 -24 -153 -20 -75 2 -138 4 -139 5 -2 1 -3 14 -3 30
0 30 -19 54 -40 49 -7 -2 -13 7 -15 18 -2 29 -55 93 -55 68 0 -10 8 -26 17
-36 10 -11 18 -29 18 -41 0 -14 7 -23 20 -25 11 -2 24 -8 29 -13 13 -12 -20
-46 -50 -52 -22 -4 -28 2 -48 47 -15 34 -34 57 -56 70 -47 27 -188 170 -239
244 -24 34 -48 62 -52 62 -16 0 -9 35 19 95 16 33 35 78 42 100 7 22 37 73 67
114 29 41 56 84 59 97 6 22 10 23 118 26 204 5 366 -2 366 -16z m-1589 -23
c47 -32 63 -38 122 -41 44 -3 67 -8 67 -17 0 -18 60 -85 92 -101 41 -21 34 -5
-17 42 -25 23 -49 53 -54 67 -8 21 -17 25 -68 29 -54 4 -112 30 -113 51 0 4
53 7 118 7 l119 0 30 -33 c17 -19 42 -51 57 -73 14 -21 48 -58 76 -82 27 -23
67 -73 89 -111 43 -74 84 -114 156 -156 48 -29 48 -28 24 -92 -4 -12 -30 -46
-56 -76 -26 -30 -63 -80 -81 -111 -24 -40 -49 -66 -88 -91 -30 -19 -60 -35
-67 -35 -8 0 -9 -2 -1 -8 6 -4 19 -22 28 -39 9 -19 27 -35 41 -39 19 -5 25
-14 30 -47 17 -113 -13 -710 -34 -679 -3 5 -35 14 -71 21 -77 15 -205 73 -300
136 -164 109 -260 277 -260 456 0 68 10 87 53 102 13 5 17 18 17 52 l0 45 48
1 c160 1 288 -3 296 -12 6 -6 6 -9 0 -9 -5 0 -8 -18 -6 -39 3 -33 9 -41 32
-50 41 -14 52 -66 48 -218 -3 -116 -5 -126 -26 -143 -20 -17 -26 -17 -55 -5
-32 13 -217 26 -217 15 0 -16 69 -86 127 -127 68 -49 174 -93 222 -93 39 0 78
34 92 78 6 20 13 134 16 252 l6 215 -35 35 c-18 19 -47 52 -64 72 l-29 37
-143 3 -143 3 -26 34 c-30 38 -23 64 18 69 45 7 59 30 59 97 0 60 1 63 39 93
23 18 41 43 44 60 3 16 9 41 13 56 3 15 2 26 -4 26 -5 0 -16 -23 -22 -51 -10
-41 -20 -56 -50 -77 -44 -31 -50 -46 -43 -101 4 -31 1 -43 -16 -60 -11 -11
-30 -21 -40 -21 -32 0 -51 -28 -51 -75 0 -42 -1 -44 -35 -51 -44 -8 -63 -1
-73 28 -13 35 -4 294 11 368 12 55 12 71 1 104 -16 45 -19 281 -4 320 13 36
38 33 101 -11z m780 1 c29 -30 30 -33 20 -72 -7 -23 -9 -52 -5 -66 4 -17 1
-27 -11 -34 -13 -6 -14 -11 -6 -16 25 -16 43 16 36 62 -6 37 -3 48 16 68 l23
24 -22 29 c-11 16 -18 31 -15 35 4 3 35 6 71 6 57 0 63 -2 57 -17 -4 -10 -16
-45 -26 -77 -15 -46 -104 -219 -127 -246 -2 -3 -14 9 -26 25 -11 17 -60 68
-108 115 -66 64 -94 99 -113 143 l-26 59 116 -4 c113 -3 115 -3 146 -34z
m-913 -132 c-5 -106 -3 -144 8 -162 13 -25 19 -80 8 -80 -8 0 -64 63 -64 72 0
5 -8 8 -18 8 -10 0 -29 11 -42 25 -13 14 -32 25 -42 25 -30 0 -33 29 -6 58 14
15 49 64 78 110 76 120 84 114 78 -56z m1922 119 c0 -5 16 -19 36 -30 20 -12
53 -36 75 -54 l39 -32 0 -160 c0 -187 -4 -209 -34 -202 -12 3 -47 12 -79 20
-31 8 -59 11 -62 7 -5 -7 61 -30 87 -30 9 0 21 -7 28 -15 7 -8 23 -15 36 -15
21 0 24 -5 24 -39 0 -37 -5 -43 -97 -120 -54 -45 -101 -81 -105 -81 -10 0 -10
286 -1 558 l6 202 24 0 c12 0 23 -4 23 -9z m-2040 -276 c6 -8 20 -17 30 -20
10 -3 37 -24 60 -47 41 -41 41 -42 31 -87 -6 -25 -9 -105 -8 -178 1 -83 -2
-136 -9 -143 -7 -7 -36 16 -97 79 l-87 88 0 117 c0 146 13 206 45 206 12 0 28
-7 35 -15z m1085 -71 c58 -39 83 -62 128 -124 51 -68 174 -190 232 -230 35
-24 46 -40 60 -85 10 -31 15 -59 11 -62 -14 -14 -41 15 -61 64 -15 39 -47 77
-135 164 -64 63 -124 128 -134 145 -10 17 -30 38 -45 47 -38 22 -111 87 -111
98 0 15 13 11 55 -17z m55 6 c0 -5 -5 -10 -11 -10 -5 0 -7 5 -4 10 3 6 8 10
11 10 2 0 4 -4 4 -10z m-20 -99 c7 -14 7 -22 -1 -27 -12 -7 -29 12 -29 34 0
19 18 14 30 -7z m-96 -26 c23 -24 2 -68 -54 -115 -27 -23 -59 -58 -71 -78 -30
-48 -175 -192 -194 -192 -32 0 -13 30 41 66 40 26 63 52 82 87 15 28 48 74 74
102 26 28 57 73 68 98 23 51 30 55 54 32z m148 -27 c18 -27 189 -201 210 -214
23 -15 58 -66 58 -85 0 -14 -7 -19 -28 -19 -25 0 -29 5 -38 42 -8 37 -19 50
-86 100 -87 65 -158 150 -151 179 7 25 17 24 35 -3z m-102 -25 c-1 -16 -26
-52 -80 -113 -85 -97 -108 -120 -119 -120 -19 0 66 115 117 158 28 23 54 51
57 62 6 19 25 29 25 13z m133 -193 c76 -100 76 -100 -115 -99 -90 0 -181 3
-203 7 l-40 7 36 23 c20 12 49 39 65 60 15 20 53 64 83 97 l56 61 35 -47 c19
-25 56 -74 83 -109z m-244 -141 c11 -13 20 -27 21 -31 0 -3 37 -21 83 -38 180
-69 255 -128 241 -187 -6 -25 -5 -26 9 -15 13 11 16 10 21 -6 4 -11 2 -31 -4
-46 -13 -34 -13 -49 0 -41 22 14 8 -44 -22 -91 l-33 -49 -5 81 c-3 49 -11 88
-19 98 -24 29 -72 49 -156 66 -76 15 -80 17 -86 45 l-6 30 -11 -27 c-13 -33
-12 -32 -59 -13 -58 24 -65 33 -48 58 26 38 16 54 -11 19 l-26 -33 -25 23
c-54 50 -68 116 -34 160 17 22 27 24 85 23 56 -1 68 -5 85 -26z m289 -43 c2
-32 -1 -63 -5 -67 -11 -11 -211 66 -240 93 -13 12 -23 25 -23 30 0 5 60 7 133
6 l132 -3 3 -59z m-353 -187 c22 -10 81 -25 130 -34 98 -19 188 -49 206 -71
18 -22 22 -87 6 -108 -13 -18 -15 -18 -72 3 -32 12 -60 19 -64 16 -3 -4 -10
-30 -16 -58 -11 -58 -25 -67 -55 -37 -20 20 -23 21 -54 6 -17 -8 -44 -17 -59
-20 -15 -2 -40 -14 -56 -25 -16 -12 -41 -21 -55 -21 l-26 0 0 216 0 216 37
-32 c20 -18 55 -41 78 -51z m327 -272 c12 -4 18 -23 23 -71 7 -67 3 -281 -5
-289 -3 -3 -39 6 -80 18 -41 13 -107 33 -146 45 -112 34 -218 91 -222 118 -4
24 22 62 42 62 5 0 21 11 35 24 15 12 47 29 72 36 41 10 50 10 72 -5 35 -22
64 -12 81 30 8 18 24 43 36 55 20 20 21 21 48 2 15 -10 34 -21 44 -25z m-420
-226 c24 -16 68 -39 98 -52 76 -31 81 -36 69 -65 -12 -32 -12 -47 0 -39 5 3
12 19 16 35 7 33 12 35 49 20 22 -8 26 -16 26 -50 0 -25 4 -39 10 -35 6 3 10
20 10 37 0 30 1 30 37 25 53 -9 144 -58 168 -90 16 -23 20 -43 19 -100 0 -40
-3 -85 -6 -102 -3 -16 -6 -33 -7 -37 -2 -17 -19 -6 -25 16 -8 31 -80 89 -157
126 -53 25 -109 41 -266 75 -20 5 -23 12 -23 58 0 37 -3 48 -10 37 -5 -8 -10
-28 -10 -43 0 -38 -20 -31 -42 14 -23 44 -25 199 -2 199 1 0 22 -13 46 -29z
m-75 -153 c-3 -7 -5 -2 -5 12 0 14 2 19 5 13 2 -7 2 -19 0 -25z m199 -122
c242 -63 333 -130 317 -231 -5 -33 -17 -46 -25 -26 -1 5 -23 25 -46 45 -37 30
-51 36 -92 36 -51 0 -62 8 -77 54 -13 41 -71 61 -131 46 -24 -6 -47 -8 -53 -5
-23 15 -51 115 -31 115 4 0 66 -16 138 -34z m20 -102 c16 -4 30 -21 43 -50 20
-45 50 -62 93 -51 27 7 53 -6 100 -51 38 -37 42 -47 52 -153 l6 -56 -83 41
c-45 23 -124 52 -175 65 -51 13 -116 38 -145 55 l-52 31 -3 88 c-1 48 0 87 3
87 4 0 15 -4 25 -10 13 -7 28 -5 52 5 18 8 39 12 46 10 8 -3 25 -8 38 -11z
m-125 -217 c14 -8 79 -32 145 -52 233 -73 352 -156 366 -255 2 -15 -2 -25 -9
-24 -7 1 -24 2 -37 3 -13 0 -31 12 -41 27 -15 23 -15 27 -1 43 23 25 20 32 -8
20 -19 -9 -30 -7 -62 15 -40 26 -68 37 -141 56 -39 10 -43 14 -43 43 l-1 32
-14 -32 c-10 -25 -20 -33 -39 -33 -31 0 -40 14 -26 40 6 12 9 29 7 38 -3 12
-9 6 -20 -20 -22 -48 -29 -52 -74 -33 -72 30 -113 86 -113 153 0 59 18 69 55
29 16 -19 42 -41 56 -50z m2 -152 c27 -8 87 -20 135 -26 91 -12 192 -44 192
-60 0 -16 -382 0 -399 16 -16 16 -7 85 12 85 7 0 34 -7 60 -15z m462 -15 c3
-6 -1 -7 -9 -4 -18 7 -21 14 -7 14 6 0 13 -4 16 -10z m-70 -132 c17 -16 18
-20 5 -28 -8 -6 -125 -10 -267 -10 l-253 0 0 23 c0 46 9 47 259 41 214 -6 238
-8 256 -26z m-475 -86 c0 -7 -57 -32 -73 -32 -4 0 -7 9 -7 20 0 17 7 20 40 20
22 0 40 -4 40 -8z m320 3 c0 -2 -24 -18 -52 -35 -45 -25 -63 -30 -124 -30 -61
0 -73 3 -91 23 -43 47 -44 47 116 47 83 0 151 -2 151 -5z m142 -128 c44 -34
88 -90 88 -113 0 -10 -13 -14 -40 -14 -31 0 -47 -7 -67 -26 -29 -29 -28 -64 3
-130 l18 -37 -28 -23 c-15 -13 -31 -24 -35 -24 -13 0 -292 381 -286 390 4 6
71 10 155 10 l148 0 44 -33z m48 -153 c0 -17 -23 -44 -39 -44 -25 0 -32 10
-20 31 9 17 59 28 59 13z m46 -29 c-20 -78 -46 -96 -46 -31 0 34 15 56 38 56
10 0 12 -7 8 -25z m194 -20 c0 -57 -47 -124 -98 -140 -24 -7 -92 11 -92 25 0
5 24 25 53 44 28 19 66 49 82 65 37 37 55 39 55 6z m-260 -19 c0 -14 -34 -28
-44 -18 -9 8 14 32 30 32 8 0 14 -6 14 -14z m13 -38 c5 -16 -10 -48 -23 -48
-16 0 -23 42 -9 51 19 12 27 11 32 -3z m51 -74 c17 -6 22 -24 8 -24 -5 0 -17
7 -28 15 -19 15 -8 20 20 9z"/>
<path d="M1140 2596 c0 -53 6 -56 100 -56 74 0 80 5 80 73 l0 27 -90 0 -90 0
0 -44z"/>
<path d="M1068 2414 c2 -33 10 -72 16 -89 l12 -30 150 -11 c82 -6 152 -9 157
-7 9 5 9 154 -1 169 -4 8 -67 14 -173 19 l-166 7 5 -58z"/>
<path d="M2145 4396 c-17 -7 -35 -19 -42 -27 -33 -40 -78 -291 -71 -399 l3
-55 80 -7 c63 -5 82 -4 91 8 6 7 14 57 18 110 12 179 50 211 197 168 188 -56
376 -184 458 -313 62 -97 94 -274 60 -329 -14 -23 -16 -21 90 -104 l53 -42 19
22 c65 81 45 324 -41 492 -117 228 -406 420 -717 475 -106 18 -158 19 -198 1z"/>
<path d="M2353 4075 c-37 -26 -51 -103 -58 -312 l-7 -193 27 -10 c14 -5 56
-10 92 -10 l65 0 -9 43 c-4 23 -7 94 -5 157 2 98 6 118 22 134 17 17 24 18 57
8 21 -6 80 -14 131 -17 90 -6 93 -5 83 14 -20 37 -116 111 -197 152 -95 48
-166 60 -201 34z"/>
<path d="M1260 3913 c-14 -2 -37 -9 -52 -15 l-28 -10 0 -143 0 -142 77 -7 c42
-3 80 -3 84 1 4 5 9 78 10 163 l4 155 -35 1 c-19 1 -46 0 -60 -3z"/>
<path d="M1430 3765 l0 -86 108 3 107 3 3 83 3 82 -111 0 -110 0 0 -85z"/>
<path d="M1986 3831 c-2 -3 -4 -40 -5 -82 -3 -90 -9 -86 139 -90 l95 -3 3 81
3 81 -53 6 c-90 9 -179 13 -182 7z"/>
<path d="M2534 3801 c-2 -2 -4 -39 -4 -82 0 -65 3 -78 18 -83 9 -2 86 -8 171
-12 l154 -7 -6 59 c-3 33 -10 71 -16 87 -10 24 -15 27 -63 28 -29 1 -97 4
-151 8 -54 3 -101 4 -103 2z"/>
<path d="M3210 3587 c0 -30 -5 -78 -11 -109 -9 -46 -9 -60 5 -86 9 -17 16 -39
16 -50 0 -24 -37 -59 -72 -67 -28 -7 -28 -7 -28 -97 l0 -91 89 5 c104 6 155
27 188 76 47 71 39 172 -24 293 -34 67 -102 147 -142 168 -20 11 -21 9 -21
-42z"/>
<path d="M678 2999 c-70 -10 -103 -31 -127 -78 -42 -82 -35 -175 21 -288 32
-64 132 -183 154 -183 7 0 14 38 19 93 10 121 10 127 -5 163 -7 17 -10 42 -6
57 7 29 50 57 87 57 l22 0 -22 24 c-24 25 -40 79 -41 134 0 36 -1 36 -102 21z"/>
<path d="M2575 2490 c-3 -6 -9 -83 -12 -172 l-6 -161 71 6 c113 9 109 3 117
171 4 79 4 149 1 155 -9 14 -163 15 -171 1z"/>
<path d="M882 1135 c-52 -36 -99 -65 -104 -65 -6 0 -9 23 -6 59 5 68 18 67
-146 14 -206 -66 -331 -136 -423 -237 -173 -189 -69 -458 232 -603 140 -66
289 -78 419 -33 181 62 452 251 506 353 22 42 23 48 11 100 -24 108 -108 161
-256 162 -49 0 -107 -4 -127 -8 -21 -4 -38 -4 -37 0 0 4 29 31 65 58 36 28 98
80 137 117 66 61 70 67 46 68 -15 0 -70 18 -123 40 -53 22 -97 40 -98 40 -2
-1 -45 -30 -96 -65z m-332 -270 c0 -205 -2 -229 -20 -265 -33 -65 -54 -63
-127 13 -34 37 -71 84 -83 106 -42 83 -15 203 62 278 34 33 134 93 156 93 9 0
12 -52 12 -225z m380 157 c52 -21 95 -43 95 -50 0 -12 -230 -192 -246 -192
-14 0 -11 254 3 268 19 19 46 14 148 -26z m120 -283 c149 -69 192 -184 103
-273 -104 -103 -268 -123 -443 -53 -73 30 -211 108 -208 118 3 7 264 209 295
229 11 6 54 9 108 7 71 -2 102 -8 145 -28z"/>
<path d="M2685 892 c-34 -15 -78 -38 -100 -51 l-40 -23 45 -22 45 -21 3 -267
c1 -148 4 -268 7 -268 13 0 255 59 264 64 7 5 11 84 11 241 l0 233 33 10 c69
21 83 21 132 -2 87 -41 84 -30 85 -298 1 -130 3 -238 6 -240 2 -3 65 9 139 25
l135 30 0 238 0 237 31 11 c63 22 134 7 202 -41 l27 -19 0 -198 0 -197 28 -26
c15 -14 46 -35 69 -47 37 -18 49 -20 90 -11 70 15 203 60 203 69 0 4 -17 13
-37 20 -20 8 -47 24 -60 37 -23 23 -23 27 -23 222 0 143 -3 203 -12 214 -20
26 -120 85 -166 99 -62 18 -124 1 -301 -84 l-53 -26 -77 44 c-42 24 -96 51
-120 61 -54 22 -89 14 -228 -51 -95 -45 -123 -53 -123 -37 0 5 -21 30 -46 55
-55 56 -79 59 -169 19z"/>
</g>
</svg>
