<?xml version="1.0" encoding="UTF-8"?>
<svg width="300px" height="67px" viewBox="0 0 300 67" version="1.1" xmlns="http://www.w3.org/2000/svg" xmlns:xlink="http://www.w3.org/1999/xlink">
    <title>Group 10</title>
    <defs>
        <path d="M23.691838,2.29767826 L23.4353833,2.76202941 C22.1531099,5.0975437 19.5324637,6.36103743 16.9106726,5.90929829 L16.9106726,5.90929829 L16.3886041,5.8198677 C16.2203057,5.79120405 16.0508625,5.77285931 15.8802743,5.76368694 L15.8802743,5.76368694 C13.4359407,5.62954106 11.3476669,7.50529038 11.2137151,9.95316618 L11.2137151,9.95316618 L11.1850929,10.4817239 C11.0396923,13.1428573 9.22619134,15.4210442 6.66851389,16.1548337 L6.66851389,16.1548337 L6.1590392,16.2992985 C5.99532036,16.3463069 5.83503619,16.4024877 5.67704179,16.4689873 L5.67704179,16.4689873 C3.41703494,17.4103016 2.34771053,20.008375 3.28766272,22.2716568 L3.28766272,22.2716568 L3.4914526,22.7600854 C4.51383664,25.2217198 3.86697552,28.0605678 1.87945177,29.833128 L1.87945177,29.833128 L1.48446577,30.1862642 C1.35623843,30.2997722 1.2360253,30.4201595 1.12268149,30.5485727 L1.12268149,30.5485727 C-0.505347755,32.3784602 -0.343918695,35.1829118 1.48446577,36.8133003 L1.48446577,36.8133003 L1.87945177,37.1664364 C3.86697552,38.9389966 4.51383664,41.7778446 3.4914526,44.239479 L3.4914526,44.239479 L3.28766272,44.7279076 C3.22240416,44.8861309 3.1663047,45.0477939 3.11936434,45.21175 L3.11936434,45.21175 C2.44617081,47.5679021 3.8074414,50.0249503 6.1590392,50.7002659 L6.1590392,50.7002659 L6.66851389,50.8458773 C9.22619134,51.5785202 11.0396923,53.8567072 11.1850929,56.5178405 L11.1850929,56.5178405 L11.2137151,57.0475448 C11.2228742,57.2172336 11.2423373,57.388069 11.2709594,57.5554647 L11.2709594,57.5554647 C11.6854085,59.9712372 13.9763273,61.5935998 16.3886041,61.1785502 L16.3886041,61.1785502 L16.9106726,61.0902661 C19.5324637,60.6396735 22.1531099,61.9020207 23.4353833,64.237535 L23.4353833,64.237535 L23.691838,64.7018861 C23.7742698,64.8509371 23.8647159,64.9954019 23.9631762,65.1352806 L23.9631762,65.1352806 C25.382836,67.1314172 28.1500278,67.5980614 30.1444209,66.1763444 L30.1444209,66.1763444 L30.5760432,65.86907 C32.7433142,64.3223794 35.6513271,64.3223794 37.819743,65.86907 L37.819743,65.86907 L38.2502205,66.1763444 C38.3887518,66.2749473 38.5330076,66.366671 38.6829877,66.4480758 L38.6829877,66.4480758 C40.827361,67.6313113 43.5224249,66.8493669 44.7028033,64.7018861 L44.7028033,64.7018861 L44.9581131,64.237535 C46.2415314,61.9020207 48.8621776,60.6396735 51.4839688,61.0902661 L51.4839688,61.0902661 L52.0060372,61.1785502 C52.1743356,61.2072138 52.3437789,61.2278516 52.514367,61.237024 L52.514367,61.237024 C54.9575558,61.3700234 57.0469745,59.494274 57.1809262,57.0475448 L57.1809262,57.0475448 L57.2095484,56.5178405 C57.3549491,53.8567072 59.16845,51.5785202 61.7261274,50.8458773 L61.7261274,50.8458773 L62.2344572,50.7002659 C62.3981761,50.652111 62.5596051,50.5970768 62.7175995,50.5305771 L62.7175995,50.5305771 C64.9776064,49.5892628 66.0469308,46.9911895 65.1058337,44.7279076 L65.1058337,44.7279076 L64.9031887,44.239479 C63.8808047,41.7778446 64.5276658,38.9389966 66.5151896,37.1664364 L66.5151896,37.1664364 L66.9101756,36.8133003 C67.037258,36.6997922 67.158616,36.5794049 67.2719598,36.4521383 L67.2719598,36.4521383 C68.8999891,34.6211042 68.73856,31.8166526 66.9101756,30.1862642 L66.9101756,30.1862642 L66.5151896,29.833128 C64.5276658,28.0605678 63.8808047,25.2217198 64.9031887,22.7600854 L64.9031887,22.7600854 L65.1058337,22.2716568 C65.1722372,22.1134335 65.2283366,21.952917 65.275277,21.788961 L65.275277,21.788961 C65.9496154,19.4316623 64.5883448,16.9746141 62.2344572,16.2992985 L62.2344572,16.2992985 L61.7261274,16.1548337 C59.16845,15.4210442 57.3549491,13.1428573 57.2095484,10.4817239 L57.2095484,10.4817239 L57.1809262,9.95316618 C57.1706223,9.78233082 57.1523041,9.612642 57.1236819,9.44409973 L57.1236819,9.44409973 C56.7092328,7.02832723 54.4194589,5.40596458 52.0060372,5.8198677 L52.0060372,5.8198677 L51.4839688,5.90929829 C48.8621776,6.36103743 46.2415314,5.0975437 44.9581131,2.76202941 L44.9581131,2.76202941 L44.7028033,2.29767826 C44.6203715,2.14862728 44.5299254,2.00416248 44.4314651,1.86428386 L44.4314651,1.86428386 C43.0118053,-0.131852795 40.2434687,-0.598497033 38.2502205,0.823220057 L38.2502205,0.823220057 L37.819743,1.1304944 C35.6513271,2.677185 32.7433142,2.677185 30.5760432,1.1304944 L30.5760432,1.1304944 L30.1444209,0.823220057 C30.0058895,0.724617098 29.8604889,0.63403996 29.7105087,0.551488645 L29.7105087,0.551488645 C29.0327356,0.177714636 28.300008,0 27.5775843,0 L27.5775843,0 C26.0136687,0 24.4989833,0.830099333 23.691838,2.29767826 L23.691838,2.29767826 Z" id="path-1"></path>
        <path d="M183.331893,5.40481803 C180.102167,9.00841224 178.489021,13.5143382 178.489021,18.9191562 L178.489021,18.9191562 C178.489021,24.4225772 180.102167,29.0144941 183.331893,32.6914672 L183.331893,32.6914672 C186.584516,36.2950615 190.70153,38.0962853 195.679498,38.0962853 L195.679498,38.0962853 C199.622489,38.0962853 203.306735,36.4922674 206.733382,33.2842316 L206.733382,33.2842316 L206.733382,37.0609542 L215.088767,37.0609542 L215.088767,0.999788147 L206.733382,0.999788147 L206.733382,5.18353465 C203.40634,1.72784488 199.647677,0 195.45739,0 L195.45739,0 C190.601925,0 186.560474,1.80237038 183.331893,5.40481803 L183.331893,5.40481803 Z M189.765012,27.3600282 C187.91602,25.1873234 186.992096,22.374846 186.992096,18.9191562 L186.992096,18.9191562 C186.992096,15.6858964 187.941207,12.9697288 189.838285,10.7740931 L189.838285,10.7740931 C191.76055,8.60253494 194.151074,7.51560929 197.009857,7.51560929 L197.009857,7.51560929 C200.041518,7.51560929 202.506459,8.58992293 204.404682,10.7374037 L204.404682,10.7374037 C206.302904,12.9341859 207.250871,15.7225859 207.250871,19.1037501 L207.250871,19.1037501 C207.250871,22.4849144 206.302904,25.2744609 204.404682,27.4712431 L204.404682,27.4712431 C202.506459,29.5934998 200.017475,30.6552015 196.936584,30.6552015 L196.936584,30.6552015 C194.053759,30.6552015 191.66209,29.5568104 189.765012,27.3600282 L189.765012,27.3600282 Z M164.773275,0.926409201 C163.589462,1.51802696 162.233916,2.61641806 160.706637,4.22043597 L160.706637,4.22043597 L160.706637,0.999788147 L152.387888,0.999788147 L152.387888,37.0609542 L160.706637,37.0609542 L160.706637,18.3642279 C160.706637,11.5021499 162.974658,8.07053758 167.509555,8.07053758 L167.509555,8.07053758 C169.012791,8.07053758 170.552664,8.63922441 172.130319,9.77430499 L172.130319,9.77430499 L175.938213,2.14748073 C173.547689,0.716591275 171.25448,0 169.062022,0 L169.062022,0 C167.40995,0 165.981131,0.308420885 164.773275,0.926409201 L164.773275,0.926409201 Z M110.1324,5.40481803 C106.902674,9.00841224 105.289529,13.5143382 105.289529,18.9191562 L105.289529,18.9191562 C105.289529,24.4225772 106.902674,29.0144941 110.1324,32.6914672 L110.1324,32.6914672 C113.385024,36.2950615 117.502038,38.0962853 122.480006,38.0962853 L122.480006,38.0962853 C126.422997,38.0962853 130.107243,36.4922674 133.53389,33.2842316 L133.53389,33.2842316 L133.53389,37.0609542 L141.889275,37.0609542 L141.889275,0.999788147 L133.53389,0.999788147 L133.53389,5.18353465 C130.206848,1.72784488 126.448184,0 122.257898,0 L122.257898,0 C117.402433,0 113.360982,1.80237038 110.1324,5.40481803 L110.1324,5.40481803 Z M116.56552,27.3600282 C114.716528,25.1873234 113.792604,22.374846 113.792604,18.9191562 L113.792604,18.9191562 C113.792604,15.6858964 114.741715,12.9697288 116.638793,10.7740931 L116.638793,10.7740931 C118.561058,8.60253494 120.951582,7.51560929 123.81151,7.51560929 L123.81151,7.51560929 C126.842025,7.51560929 129.306967,8.58992293 131.20519,10.7374037 L131.20519,10.7374037 C133.102267,12.9341859 134.051379,15.7225859 134.051379,19.1037501 L134.051379,19.1037501 C134.051379,22.4849144 133.102267,25.2744609 131.20519,27.4712431 L131.20519,27.4712431 C129.306967,29.5934998 126.817983,30.6552015 123.737092,30.6552015 L123.737092,30.6552015 C120.853122,30.6552015 118.462598,29.5568104 116.56552,27.3600282 L116.56552,27.3600282 Z M73.7169811,5.33143909 C71.3516447,1.77714636 68.1345123,0 64.0690188,0 L64.0690188,0 C62.2440689,0 60.7293835,0.308420885 59.5215278,0.926409201 L59.5215278,0.926409201 C58.3869448,1.51802696 57.0199498,2.65310754 55.4171081,4.33165094 L55.4171081,4.33165094 L55.4171081,0.999788147 L47.0983595,0.999788147 L47.0983595,37.0609542 L55.4171081,37.0609542 L55.4171081,18.4376069 C55.4171081,14.6608842 55.9529151,11.8965617 57.0256742,10.1446394 L57.0256742,10.1446394 C58.0972884,8.39271702 59.8043149,7.51560929 62.1456087,7.51560929 L62.1456087,7.51560929 C65.8424486,7.51560929 67.6914411,10.7247917 67.6914411,17.1420098 L67.6914411,17.1420098 L67.6914411,37.0609542 L76.0456812,37.0609542 L76.0456812,18.4376069 C76.0456812,14.6115827 76.5700394,11.8346482 77.6176109,10.1079499 L77.6176109,10.1079499 C78.6651825,8.37895846 80.3344277,7.51560929 82.6264914,7.51560929 L82.6264914,7.51560929 C84.5979867,7.51560929 86.0153567,8.24366603 86.8786015,9.6997795 L86.8786015,9.6997795 C87.7155139,11.1318155 88.1356874,13.5751051 88.1356874,17.0307949 L88.1356874,17.0307949 L88.1356874,37.0609542 L96.4899275,37.0609542 L96.4899275,14.7732457 C96.4899275,4.92441524 92.4358828,0 84.3266485,0 L84.3266485,0 C79.8661689,0 76.3296131,1.77714636 73.7169811,5.33143909 L73.7169811,5.33143909 Z M4.84287181,5.40481803 C1.6142906,9.00841224 0,13.5143382 0,18.9191562 L0,18.9191562 C0,24.4225772 1.6142906,29.0144941 4.84287181,32.6914672 L4.84287181,32.6914672 C8.09664053,36.2950615 12.2125091,38.0962853 17.1904776,38.0962853 L17.1904776,38.0962853 C21.1334683,38.0962853 24.8188594,36.4922674 28.2443611,33.2842316 L28.2443611,33.2842316 L28.2443611,37.0609542 L36.5997461,37.0609542 L36.5997461,0.999788147 L28.2443611,0.999788147 L28.2443611,5.18353465 C24.9173196,1.72784488 21.1586558,0 16.9683695,0 L16.9683695,0 C12.1140488,0 8.07145302,1.80237038 4.84287181,5.40481803 L4.84287181,5.40481803 Z M11.2759916,27.3600282 C9.42699917,25.1873234 8.5030754,22.374846 8.5030754,18.9191562 L8.5030754,18.9191562 C8.5030754,15.6858964 9.45218668,12.9697288 11.3492644,10.7740931 L11.3492644,10.7740931 C13.2715296,8.60253494 15.6620535,7.51560929 18.5219811,7.51560929 L18.5219811,7.51560929 C21.5536418,7.51560929 24.0174385,8.58992293 25.9156611,10.7374037 L25.9156611,10.7374037 C27.8127387,12.9341859 28.76185,15.7225859 28.76185,19.1037501 L28.76185,19.1037501 C28.76185,22.4849144 27.8127387,25.2744609 25.9156611,27.4712431 L25.9156611,27.4712431 C24.0174385,29.5934998 21.5284543,30.6552015 18.4475635,30.6552015 L18.4475635,30.6552015 C15.5647381,30.6552015 13.1730693,29.5568104 11.2759916,27.3600282 L11.2759916,27.3600282 Z" id="path-3"></path>
        <path d="M3.85597926,4.43598663 C1.28570805,7.39407541 3.25396443e-14,11.0916864 3.25396443e-14,15.527673 L3.25396443e-14,15.527673 C3.25396443e-14,20.0450644 1.28570805,23.8137613 3.85597926,26.8314704 L3.85597926,26.8314704 C6.44685843,29.7907058 9.72352489,31.2686036 13.6882684,31.2686036 L13.6882684,31.2686036 C16.8275484,31.2686036 19.7618937,29.9523688 22.4901593,27.3187525 L22.4901593,27.3187525 L22.4901593,30.4178665 L29.1419525,30.4178665 L29.1419525,0.819780419 L22.4901593,0.819780419 L22.4901593,4.25368581 C19.8408909,1.41713091 16.8470115,0 13.5119558,0 L13.5119558,0 C9.64567258,0 6.42739535,1.47789785 3.85597926,4.43598663 L3.85597926,4.43598663 Z M8.52368336,23.2381951 C7.00327349,21.3784975 6.24421344,18.9696042 6.24421344,16.012662 L6.24421344,16.012662 C6.24421344,13.2460464 7.02502634,10.9219976 8.58436237,9.04166207 L8.58436237,9.04166207 C10.1654513,7.18311094 12.1300773,6.25440865 14.4805302,6.25440865 L14.4805302,6.25440865 C16.9718042,6.25440865 18.9971092,7.17279203 20.5575901,9.01070533 L20.5575901,9.01070533 C22.118071,10.8898943 22.8977391,13.2770031 22.8977391,16.1720319 L22.8977391,16.1720319 C22.8977391,19.0647676 22.118071,21.453023 20.5575901,23.3322119 L20.5575901,23.3322119 C18.9971092,25.1494874 16.9511962,26.0575519 14.4198512,26.0575519 L14.4198512,26.0575519 C12.0487903,26.0575519 10.0841643,25.1173841 8.52368336,23.2381951 L8.52368336,23.2381951 Z" id="path-5"></path>
    </defs>
    <g id="Page-1" stroke="none" stroke-width="1" fill="none" fill-rule="evenodd">
        <g id="Group-10" transform="translate(0.000000, -0.000000)">
            <g id="Group-3" transform="translate(0.000000, -0.000000)">
                <mask id="mask-2" fill="white">
                    <use xlink:href="#path-1"></use>
                </mask>
                <g id="Clip-2"></g>
                <polygon id="Fill-1" fill="#E3211D" mask="url(#mask-2)" points="-5.72374248 72.7322946 74.1195287 72.7322946 74.1195287 -5.7327302 -5.72374248 -5.7327302"></polygon>
            </g>
            <g id="Group-6" transform="translate(84.911233, 14.186214)">
                <mask id="mask-4" fill="white">
                    <use xlink:href="#path-3"></use>
                </mask>
                <g id="Clip-5"></g>
                <polygon id="Fill-4" fill="#57676F" mask="url(#mask-4)" points="-5.72443476 43.8290155 220.813202 43.8290155 220.813202 -5.7327302 -5.72443476 -5.7327302"></polygon>
            </g>
            <g id="Group-9" transform="translate(20.667047, 17.865480)">
                <mask id="mask-6" fill="white">
                    <use xlink:href="#path-5"></use>
                </mask>
                <g id="Clip-8"></g>
                <polygon id="Fill-7" fill="#FFFFFF" mask="url(#mask-6)" points="-5.72443476 37.0024804 34.8675321 37.0024804 34.8675321 -5.7327302 -5.72443476 -5.7327302"></polygon>
            </g>
        </g>
    </g>
</svg>