<?xml version="1.0" standalone="no"?>
<!DOCTYPE svg PUBLIC "-//W3C//DTD SVG 20010904//EN"
 "http://www.w3.org/TR/2001/REC-SVG-20010904/DTD/svg10.dtd">
<svg version="1.0" xmlns="http://www.w3.org/2000/svg"
 width="360.000000pt" height="360.000000pt" viewBox="0 0 360.000000 360.000000"
 preserveAspectRatio="xMidYMid meet">

<g transform="translate(0.000000,360.000000) scale(0.100000,-0.100000)"
fill="#6c25be" stroke="none">
<path d="M2016 3578 c-8 -13 -52 -93 -98 -178 l-84 -155 -74 -7 c-54 -5 -81
-3 -95 6 -11 7 -67 81 -124 165 -58 83 -113 153 -123 157 -25 8 -357 -106
-367 -125 -5 -9 -2 -96 6 -193 9 -97 13 -187 9 -200 -7 -27 -121 -108 -153
-108 -11 0 -97 32 -189 70 -92 39 -177 70 -188 68 -25 -4 -236 -264 -236 -291
0 -11 49 -86 109 -166 59 -80 111 -151 115 -158 9 -17 -51 -163 -78 -189 -17
-15 -62 -27 -187 -48 -180 -32 -215 -41 -222 -60 -10 -25 -40 -334 -34 -348 3
-9 81 -42 181 -78 97 -35 183 -71 192 -81 15 -17 43 -145 44 -202 0 -22 -18
-44 -87 -110 -165 -155 -203 -193 -203 -203 1 -5 36 -76 78 -159 67 -131 80
-150 103 -153 15 -2 95 13 179 32 84 20 167 36 185 36 27 0 44 -12 109 -80 42
-44 76 -87 76 -97 0 -9 -21 -100 -47 -201 -40 -157 -44 -185 -32 -197 21 -21
282 -165 299 -165 8 0 79 64 157 142 l142 141 111 -23 c86 -18 115 -28 125
-44 7 -12 37 -93 66 -181 29 -88 59 -168 67 -177 18 -22 60 -23 230 -6 107 10
126 14 137 32 7 12 29 100 49 196 24 115 42 181 54 191 17 17 173 79 197 79 7
0 79 -54 161 -120 82 -66 156 -120 164 -120 19 0 276 194 289 218 6 12 -10 68
-61 205 l-71 188 49 71 c27 39 58 76 69 83 16 11 54 9 208 -7 163 -18 190 -19
203 -7 20 21 131 333 125 352 -3 9 -77 68 -163 132 l-158 116 0 83 c0 51 5 88
13 98 6 9 85 53 174 97 89 45 167 89 174 97 10 13 9 34 -10 117 -12 56 -29
136 -38 177 -9 41 -21 80 -27 87 -7 8 -73 17 -181 24 -236 16 -238 16 -275 89
-17 33 -30 66 -30 73 0 8 43 87 96 177 52 89 94 170 92 180 -2 9 -59 76 -128
149 -90 95 -131 131 -148 131 -13 0 -96 -40 -185 -90 -89 -49 -168 -90 -177
-90 -18 0 -111 53 -127 72 -8 8 -15 87 -19 207 -5 139 -11 196 -20 206 -8 7
-76 27 -151 45 -76 17 -151 36 -167 41 -45 14 -64 11 -80 -13z m1 -744 c127
-26 268 -86 385 -165 226 -153 402 -434 437 -696 18 -133 18 -155 9 -263 -24
-301 -178 -574 -428 -761 -68 -50 -203 -119 -290 -147 -389 -125 -817 -17
-1091 275 -302 323 -373 793 -180 1188 212 433 683 664 1158 569z"/>
</g>
</svg>
